<?xml version="1.0" encoding="UTF-8" standalone="no"?>
<svg
   xmlns:dc="http://purl.org/dc/elements/1.1/"
   xmlns:cc="http://creativecommons.org/ns#"
   xmlns:rdf="http://www.w3.org/1999/02/22-rdf-syntax-ns#"
   xmlns:svg="http://www.w3.org/2000/svg"
   xmlns="http://www.w3.org/2000/svg"
   xmlns:sodipodi="http://sodipodi.sourceforge.net/DTD/sodipodi-0.dtd"
   xmlns:inkscape="http://www.inkscape.org/namespaces/inkscape"
   version="1.1"
   id="Capa_1"
   x="0px"
   y="0px"
   viewBox="0 0 477.175 477.175"
   style="enable-background:new 0 0 477.175 477.175;"
   xml:space="preserve"
   sodipodi:docname="arrow.svg"
   inkscape:version="1.0.2-2 (e86c870879, 2021-01-15)"><metadata
   id="metadata90"><rdf:RDF><cc:Work
       rdf:about=""><dc:format>image/svg+xml</dc:format><dc:type
         rdf:resource="http://purl.org/dc/dcmitype/StillImage" /><dc:title></dc:title></cc:Work></rdf:RDF></metadata><defs
   id="defs88" /><sodipodi:namedview
   pagecolor="#ffffff"
   bordercolor="#666666"
   borderopacity="1"
   objecttolerance="10"
   gridtolerance="10"
   guidetolerance="10"
   inkscape:pageopacity="0"
   inkscape:pageshadow="2"
   inkscape:window-width="1920"
   inkscape:window-height="1017"
   id="namedview86"
   showgrid="false"
   inkscape:zoom="1.7813171"
   inkscape:cx="238.5875"
   inkscape:cy="238.5875"
   inkscape:window-x="-8"
   inkscape:window-y="-8"
   inkscape:window-maximized="1"
   inkscape:current-layer="Capa_1" />
<g
   id="g53"
   transform="rotate(-90,238.588,238.5875)">
	<path
   d="m 145.188,238.575 215.5,-215.5 c 5.3,-5.3 5.3,-13.8 0,-19.1 -5.3,-5.3 -13.8,-5.3 -19.1,0 l -225.1,225.1 c -5.3,5.3 -5.3,13.8 0,19.1 l 225.1,225 c 2.6,2.6 6.1,4 9.5,4 3.4,0 6.9,-1.3 9.5,-4 5.3,-5.3 5.3,-13.8 0,-19.1 z"
   id="path51" />
</g>
<g
   id="g55"
   transform="rotate(-90)">
</g>
<g
   id="g57"
   transform="rotate(-90)">
</g>
<g
   id="g59"
   transform="rotate(-90)">
</g>
<g
   id="g61"
   transform="rotate(-90)">
</g>
<g
   id="g63"
   transform="rotate(-90)">
</g>
<g
   id="g65"
   transform="rotate(-90)">
</g>
<g
   id="g67"
   transform="rotate(-90)">
</g>
<g
   id="g69"
   transform="rotate(-90)">
</g>
<g
   id="g71"
   transform="rotate(-90)">
</g>
<g
   id="g73"
   transform="rotate(-90)">
</g>
<g
   id="g75"
   transform="rotate(-90)">
</g>
<g
   id="g77"
   transform="rotate(-90)">
</g>
<g
   id="g79"
   transform="rotate(-90)">
</g>
<g
   id="g81"
   transform="rotate(-90)">
</g>
<g
   id="g83"
   transform="rotate(-90)">
</g>
</svg>
